<svg width="11" height="12" viewBox="0 0 11 12" fill="none" xmlns="http://www.w3.org/2000/svg">
<path d="M0.5 1.94099L0.5 10.0535C0.501798 10.3084 0.57043 10.5583 0.699042 10.7784C0.827654 10.9985 1.01175 11.1809 1.23294 11.3076C1.45413 11.4342 1.70468 11.5007 1.95956 11.5002C2.21445 11.4998 2.46476 11.4324 2.6855 11.305L9.46 7.24699C9.67433 7.11717 9.8516 6.93432 9.97472 6.71607C10.0978 6.49782 10.1626 6.25153 10.1629 6.00095C10.1631 5.75036 10.0988 5.50394 9.97615 5.28544C9.85347 5.06695 9.67657 4.88374 9.4625 4.75349L2.693 0.698491C2.47269 0.569525 2.22237 0.500706 1.9671 0.498924C1.71182 0.497143 1.46056 0.562463 1.23848 0.688341C1.01639 0.814219 0.831278 0.996239 0.701673 1.21617C0.572068 1.4361 0.502522 1.68573 0.5 1.94099Z" fill="#B3BAC5"/>
</svg>
