<svg width="11" height="12" viewBox="0 0 11 12" fill="none" xmlns="http://www.w3.org/2000/svg">
<path d="M10.5 10.059L10.5 1.94651C10.4982 1.69163 10.4296 1.44167 10.301 1.22161C10.1723 1.00155 9.98825 0.819077 9.76706 0.692415C9.54587 0.565753 9.29532 0.499334 9.04044 0.499789C8.78555 0.500244 8.53524 0.567557 8.3145 0.695008L1.54 4.75301C1.32567 4.88283 1.1484 5.06568 1.02528 5.28393C0.902167 5.50218 0.837359 5.74847 0.837108 5.99905C0.836858 6.24964 0.901171 6.49606 1.02385 6.71455C1.14653 6.93305 1.32343 7.11626 1.5375 7.24651L8.307 11.3015C8.52731 11.4305 8.77763 11.4993 9.0329 11.5011C9.28818 11.5029 9.53944 11.4375 9.76152 11.3117C9.98361 11.1858 10.1687 11.0038 10.2983 10.7838C10.4279 10.5639 10.4975 10.3143 10.5 10.059Z" fill="#B3BAC5"/>
</svg>
