<svg width="12" height="11" viewBox="0 0 12 11" fill="none" xmlns="http://www.w3.org/2000/svg">
<path d="M10.059 0.5H1.94648C1.69159 0.501798 1.44164 0.57043 1.22158 0.699042C1.00152 0.827654 0.819047 1.01175 0.692385 1.23294C0.565723 1.45413 0.499303 1.70468 0.499758 1.95956C0.500213 2.21445 0.567527 2.46476 0.694978 2.6855L4.75298 9.46C4.8828 9.67433 5.06565 9.8516 5.2839 9.97472C5.50215 10.0978 5.74844 10.1626 5.99902 10.1629C6.24961 10.1631 6.49603 10.0988 6.71452 9.97615C6.93302 9.85347 7.11623 9.67657 7.24648 9.4625L11.3015 2.693C11.4304 2.47269 11.4993 2.22237 11.501 1.9671C11.5028 1.71182 11.4375 1.46056 11.3116 1.23848C11.1858 1.01639 11.0037 0.831279 10.7838 0.701674C10.5639 0.572069 10.3142 0.502523 10.059 0.5Z" fill="#B3BAC5"/>
</svg>
