<svg width="24" height="24" viewBox="0 0 24 24" fill="none" xmlns="http://www.w3.org/2000/svg">
<g clip-path="url(#clip0_7_145)">
<path d="M15 8C16.628 8 18.2 8.787 19.707 10.293C19.8891 10.4816 19.9899 10.7342 19.9877 10.9964C19.9854 11.2586 19.8802 11.5094 19.6948 11.6948C19.5094 11.8802 19.2586 11.9854 18.9964 11.9877C18.7342 11.99 18.4816 11.8892 18.293 11.707C17.445 10.859 16.631 10.338 15.849 10.12L15 16.064V21C15 21.2652 14.8946 21.5196 14.7071 21.7071C14.5196 21.8946 14.2652 22 14 22C13.7348 22 13.4804 21.8946 13.2929 21.7071C13.1053 21.5196 13 21.2652 13 21V17H11V21C11 21.2652 10.8946 21.5196 10.7071 21.7071C10.5196 21.8946 10.2652 22 9.99999 22C9.73477 22 9.48042 21.8946 9.29288 21.7071C9.10535 21.5196 8.99999 21.2652 8.99999 21V16.071L8.14999 10.12C7.36899 10.338 6.55499 10.859 5.70699 11.707C5.61474 11.8025 5.5044 11.8787 5.38239 11.9311C5.26039 11.9835 5.12917 12.0111 4.99639 12.0123C4.86361 12.0134 4.73193 11.9881 4.60904 11.9378C4.48614 11.8875 4.37449 11.8133 4.28059 11.7194C4.1867 11.6255 4.11245 11.5139 4.06217 11.391C4.01189 11.2681 3.98659 11.1364 3.98774 11.0036C3.98889 10.8708 4.01648 10.7396 4.06889 10.6176C4.1213 10.4956 4.19748 10.3852 4.29299 10.293C5.79899 8.787 7.37299 8 8.99999 8H15Z" fill="#183B56"/>
<path d="M12 1C12.5933 1 13.1734 1.17595 13.6667 1.50559C14.1601 1.83524 14.5446 2.30377 14.7716 2.85195C14.9987 3.40013 15.0581 4.00333 14.9424 4.58527C14.8266 5.16721 14.5409 5.70176 14.1213 6.12132C13.7018 6.54088 13.1672 6.8266 12.5853 6.94236C12.0033 7.05811 11.4001 6.9987 10.8519 6.77164C10.3038 6.54458 9.83524 6.16006 9.50559 5.66671C9.17595 5.17336 9 4.59334 9 4L9.005 3.824C9.04989 3.06011 9.38499 2.34224 9.94174 1.81728C10.4985 1.29233 11.2348 0.999957 12 1Z" fill="#183B56"/>
</g>
<defs>
<clipPath id="clip0_7_145">
<rect width="24" height="24" fill="white"/>
</clipPath>
</defs>
</svg>
