<svg width="48" height="50" viewBox="0 0 48 50" fill="none" xmlns="http://www.w3.org/2000/svg">
<g clip-path="url(#clip0_7_165)">
<path d="M8 39.5833C8 40.6884 8.42143 41.7482 9.17157 42.5296C9.92172 43.311 10.9391 43.75 12 43.75C13.0609 43.75 14.0783 43.311 14.8284 42.5296C15.5786 41.7482 16 40.6884 16 39.5833C16 38.4783 15.5786 37.4185 14.8284 36.6371C14.0783 35.8557 13.0609 35.4167 12 35.4167C10.9391 35.4167 9.92172 35.8557 9.17157 36.6371C8.42143 37.4185 8 38.4783 8 39.5833Z" stroke="#183B56" stroke-width="2" stroke-linecap="round" stroke-linejoin="round"/>
<path d="M30 39.5833C30 40.6884 30.4214 41.7482 31.1716 42.5296C31.9217 43.311 32.9391 43.75 34 43.75C35.0609 43.75 36.0783 43.311 36.8284 42.5296C37.5786 41.7482 38 40.6884 38 39.5833C38 38.4783 37.5786 37.4185 36.8284 36.6371C36.0783 35.8557 35.0609 35.4167 34 35.4167C32.9391 35.4167 31.9217 35.8557 31.1716 36.6371C30.4214 37.4185 30 38.4783 30 39.5833Z" stroke="#183B56" stroke-width="2" stroke-linecap="round" stroke-linejoin="round"/>
<path d="M34 35.4167H12V6.25H8" stroke="#183B56" stroke-width="2" stroke-linecap="round" stroke-linejoin="round"/>
<path d="M12 10.4167L40 12.5L38 27.0833H12" stroke="#183B56" stroke-width="2" stroke-linecap="round" stroke-linejoin="round"/>
</g>
<defs>
<clipPath id="clip0_7_165">
<rect width="48" height="50" fill="white"/>
</clipPath>
</defs>
</svg>
