<svg width="50" height="50" viewBox="0 0 50 50" fill="none" xmlns="http://www.w3.org/2000/svg">
<g clip-path="url(#clip0_7_177)">
<path d="M25 16.6667V25L29.1667 29.1667" stroke="#183B56" stroke-width="2" stroke-linecap="round" stroke-linejoin="round"/>
<path d="M6.35416 22.9167C6.82101 18.3334 8.95887 14.0825 12.3599 10.9749C15.7608 7.86733 20.1869 6.12059 24.7935 6.06797C29.4001 6.01536 33.8649 7.66055 37.336 10.6897C40.807 13.7188 43.0414 17.9197 43.6128 22.4911C44.1843 27.0625 43.0527 31.6842 40.4341 35.4745C37.8154 39.2648 33.893 41.9584 29.4152 43.0414C24.9373 44.1243 20.2175 43.5208 16.1562 41.346C12.095 39.1712 8.97649 35.5773 7.39582 31.25M6.35416 41.6667V31.25H16.7708" stroke="#183B56" stroke-width="2" stroke-linecap="round" stroke-linejoin="round"/>
</g>
<defs>
<clipPath id="clip0_7_177">
<rect width="50" height="50" fill="white"/>
</clipPath>
</defs>
</svg>
