<svg width="77" height="77" viewBox="0 0 77 77" fill="none" xmlns="http://www.w3.org/2000/svg">
<g clip-path="url(#clip0_88_26)">
<path d="M9.62501 67.375C9.62501 67.375 41.1758 56.1811 50.3195 47.0342C53.0177 44.3346 54.5334 40.6741 54.5334 36.8573C54.5334 33.0406 53.0177 29.38 50.3195 26.6805C48.9838 25.3439 47.3978 24.2836 45.6522 23.5602C43.9065 22.8368 42.0355 22.4645 40.1459 22.4645C38.2563 22.4645 36.3852 22.8368 34.6396 23.5602C32.8939 24.2836 31.308 25.3439 29.9723 26.6805C20.7964 35.8595 9.60896 67.391 9.60896 67.391L9.62501 67.375Z" fill="#F7931A" stroke="black" stroke-width="3" stroke-linecap="round" stroke-linejoin="round"/>
<path d="M28.875 41.7084L24.0625 36.8959Z" fill="#F7931A"/>
<path d="M28.875 41.7084L24.0625 36.8959" stroke="black" stroke-width="3" stroke-linecap="round" stroke-linejoin="round"/>
<path d="M51.3333 44.9167L44.9167 38.5Z" fill="#F7931A"/>
<path d="M51.3333 44.9167L44.9167 38.5" stroke="black" stroke-width="3" stroke-linecap="round" stroke-linejoin="round"/>
<path d="M70.5833 25.6667C70.5833 25.6667 66.9258 19.25 60.9583 19.25C56.4474 19.25 51.3333 25.6667 51.3333 25.6667C51.3333 25.6667 54.9908 32.0833 60.9583 32.0833C66.9258 32.0833 70.5833 25.6667 70.5833 25.6667Z" fill="#F7931A" stroke="black" stroke-width="3" stroke-linecap="round" stroke-linejoin="round"/>
<path d="M51.3333 6.41663C51.3333 6.41663 44.9167 10.0741 44.9167 16.0416C44.9167 22.0091 51.3333 25.6666 51.3333 25.6666C51.3333 25.6666 57.75 20.6071 57.75 16.0416C57.75 10.0741 51.3333 6.41663 51.3333 6.41663Z" fill="#F7931A" stroke="black" stroke-width="3" stroke-linecap="round" stroke-linejoin="round"/>
</g>
<defs>
<clipPath id="clip0_88_26">
<rect width="77" height="77" fill="white"/>
</clipPath>
</defs>
</svg>
